<svg width="40" height="40" viewBox="0 0 40 40" fill="none" xmlns="http://www.w3.org/2000/svg">
<path d="M27.1875 23.1269C27.1875 23.4359 27.0959 23.738 26.9242 23.995C26.7525 24.2519 26.5085 24.4522 26.2229 24.5705C25.9374 24.6887 25.6233 24.7197 25.3202 24.6594C25.0171 24.5991 24.7387 24.4503 24.5202 24.2318C24.3016 24.0132 24.1528 23.7348 24.0925 23.4317C24.0322 23.1286 24.0632 22.8145 24.1814 22.529C24.2997 22.2434 24.5 21.9994 24.7569 21.8277C25.0139 21.656 25.316 21.5644 25.625 21.5644C26.0394 21.5644 26.4368 21.729 26.7299 22.022C27.0229 22.3151 27.1875 22.7125 27.1875 23.1269ZM14.375 21.5644C14.066 21.5644 13.7639 21.656 13.5069 21.8277C13.25 21.9994 13.0497 22.2434 12.9314 22.529C12.8132 22.8145 12.7822 23.1286 12.8425 23.4317C12.9028 23.7348 13.0516 24.0132 13.2702 24.2318C13.4887 24.4503 13.7671 24.5991 14.0702 24.6594C14.3733 24.7197 14.6874 24.6887 14.973 24.5705C15.2585 24.4522 15.5025 24.2519 15.6742 23.995C15.8459 23.738 15.9375 23.4359 15.9375 23.1269C15.9375 22.7125 15.7729 22.3151 15.4799 22.022C15.1868 21.729 14.7894 21.5644 14.375 21.5644ZM37.1875 25.0019V28.7519C37.1875 29.3321 36.957 29.8885 36.5468 30.2987C36.1366 30.7089 35.5802 30.9394 35 30.9394H5.00001C4.41984 30.9394 3.86345 30.7089 3.45321 30.2987C3.04297 29.8885 2.81251 29.3321 2.81251 28.7519V25.1785C2.81053 22.7569 3.31365 20.3616 4.28973 18.1455C5.26581 15.9295 6.69338 13.9413 8.48126 12.3082L4.33751 8.1644C4.2454 8.07857 4.17152 7.97507 4.12028 7.86007C4.06904 7.74507 4.04149 7.62093 4.03927 7.49505C4.03705 7.36918 4.0602 7.24414 4.10735 7.1274C4.1545 7.01067 4.22468 6.90463 4.31371 6.8156C4.40273 6.72658 4.50877 6.6564 4.62551 6.60925C4.74224 6.5621 4.86728 6.53894 4.99316 6.54116C5.11904 6.54338 5.24318 6.57093 5.35818 6.62217C5.47318 6.67341 5.57668 6.74729 5.66251 6.8394L9.93907 11.1144C12.8381 8.98177 16.3401 7.8261 19.9391 7.8144H20C23.6256 7.80442 27.1601 8.94993 30.0906 11.0847L34.3375 6.8394C34.5152 6.6738 34.7503 6.58365 34.9932 6.58793C35.236 6.59222 35.4678 6.69061 35.6395 6.86237C35.8113 7.03414 35.9097 7.26587 35.914 7.50875C35.9183 7.75162 35.8281 7.98668 35.6625 8.1644L31.5516 12.2753C31.7484 12.455 31.9422 12.6378 32.1328 12.8269C33.74 14.4202 35.0145 16.3169 35.8822 18.407C36.75 20.4971 37.1937 22.7388 37.1875 25.0019ZM35.3125 25.0019C35.3125 20.9408 33.6992 17.046 30.8276 14.1743C27.9559 11.3027 24.0611 9.6894 20 9.6894H19.9453C11.5328 9.71909 4.68751 16.6675 4.68751 25.1785V28.7519C4.68751 28.8348 4.72043 28.9143 4.77904 28.9729C4.83764 29.0315 4.91713 29.0644 5.00001 29.0644H35C35.0829 29.0644 35.1624 29.0315 35.221 28.9729C35.2796 28.9143 35.3125 28.8348 35.3125 28.7519V25.0019Z" fill="black"/>
</svg>
